<svg width="233" height="54" viewBox="0 0 233 54" fill="none" xmlns="http://www.w3.org/2000/svg">
<path d="M15.0509 52.312V19.432H19.6109L19.9949 21.928H20.1869C21.1789 21.096 22.2829 20.376 23.4989 19.768C24.7149 19.16 25.9789 18.856 27.2909 18.856C28.7629 18.856 30.0589 19.144 31.1789 19.72C32.3309 20.264 33.3069 21.064 34.1069 22.12C34.9069 23.176 35.5149 24.44 35.9309 25.912C36.3469 27.384 36.5549 29.032 36.5549 30.856C36.5549 32.872 36.2669 34.68 35.6909 36.28C35.1469 37.848 34.4109 39.176 33.4829 40.264C32.5549 41.32 31.4829 42.136 30.2669 42.712C29.0509 43.288 27.7869 43.576 26.4749 43.576C25.4509 43.576 24.4269 43.352 23.4029 42.904C22.3789 42.456 21.3869 41.816 20.4269 40.984L20.5709 44.92V52.312H15.0509ZM25.3229 39.016C26.8909 39.016 28.2029 38.344 29.2589 37C30.3149 35.624 30.8429 33.592 30.8429 30.904C30.8429 28.536 30.4429 26.696 29.6429 25.384C28.8429 24.072 27.5469 23.416 25.7549 23.416C24.0909 23.416 22.3629 24.296 20.5709 26.056V37.048C21.4349 37.784 22.2669 38.296 23.0669 38.584C23.8669 38.872 24.6189 39.016 25.3229 39.016ZM47.2941 43.576C45.2141 43.576 43.5341 42.952 42.2541 41.704C40.9741 40.424 40.3341 38.744 40.3341 36.664C40.3341 35.416 40.5901 34.312 41.1021 33.352C41.6461 32.36 42.4781 31.512 43.5981 30.808C44.7501 30.104 46.1901 29.512 47.9181 29.032C49.6781 28.552 51.7741 28.184 54.2061 27.928C54.1741 27.32 54.0781 26.744 53.9181 26.2C53.7901 25.624 53.5501 25.128 53.1981 24.712C52.8781 24.264 52.4461 23.928 51.9021 23.704C51.3581 23.448 50.6861 23.32 49.8861 23.32C48.7341 23.32 47.5981 23.544 46.4781 23.992C45.3901 24.44 44.3181 24.984 43.2621 25.624L41.2461 21.928C42.5581 21.096 44.0301 20.376 45.6621 19.768C47.2941 19.16 49.0541 18.856 50.9421 18.856C53.8861 18.856 56.0781 19.736 57.5181 21.496C58.9901 23.224 59.7261 25.736 59.7261 29.032V43H55.1661L54.7821 40.408H54.5901C53.5341 41.304 52.3981 42.056 51.1821 42.664C49.9981 43.272 48.7021 43.576 47.2941 43.576ZM49.0701 39.256C50.0301 39.256 50.8941 39.032 51.6621 38.584C52.4621 38.136 53.3101 37.496 54.2061 36.664V31.384C52.6061 31.576 51.2621 31.832 50.1741 32.152C49.0861 32.472 48.2061 32.84 47.5341 33.256C46.8621 33.64 46.3821 34.088 46.0941 34.6C45.8061 35.112 45.6621 35.656 45.6621 36.232C45.6621 37.288 45.9821 38.056 46.6221 38.536C47.2621 39.016 48.0781 39.256 49.0701 39.256ZM72.9081 43.576C71.2761 43.576 69.6601 43.272 68.0601 42.664C66.4921 42.024 65.1321 41.24 63.9801 40.312L66.5721 36.76C67.6281 37.592 68.6681 38.248 69.6921 38.728C70.7481 39.176 71.8841 39.4 73.1001 39.4C74.3801 39.4 75.3241 39.144 75.9321 38.632C76.5401 38.088 76.8441 37.4 76.8441 36.568C76.8441 36.088 76.7001 35.672 76.4121 35.32C76.1241 34.936 75.7401 34.6 75.2601 34.312C74.7801 34.024 74.2361 33.768 73.6281 33.544C73.0201 33.288 72.4121 33.032 71.8041 32.776C71.0361 32.488 70.2521 32.152 69.4521 31.768C68.6521 31.384 67.9321 30.92 67.2921 30.376C66.6841 29.832 66.1721 29.208 65.7561 28.504C65.3721 27.768 65.1801 26.904 65.1801 25.912C65.1801 23.832 65.9481 22.136 67.4841 20.824C69.0201 19.512 71.1161 18.856 73.7721 18.856C75.4041 18.856 76.8761 19.144 78.1881 19.72C79.5001 20.296 80.6361 20.952 81.5961 21.688L79.0521 25.048C78.2201 24.44 77.3721 23.96 76.5081 23.608C75.6761 23.224 74.7961 23.032 73.8681 23.032C72.6841 23.032 71.8041 23.288 71.2281 23.8C70.6841 24.28 70.4121 24.888 70.4121 25.624C70.4121 26.104 70.5401 26.52 70.7961 26.872C71.0841 27.192 71.4521 27.48 71.9001 27.736C72.3481 27.992 72.8601 28.232 73.4361 28.456C74.0441 28.68 74.6681 28.904 75.3081 29.128C76.1081 29.416 76.9081 29.752 77.7081 30.136C78.5081 30.488 79.2281 30.936 79.8681 31.48C80.5401 32.024 81.0681 32.696 81.4521 33.496C81.8681 34.264 82.0761 35.192 82.0761 36.28C82.0761 37.304 81.8681 38.264 81.4521 39.16C81.0681 40.024 80.4921 40.792 79.7241 41.464C78.9561 42.104 77.9961 42.616 76.8441 43C75.6921 43.384 74.3801 43.576 72.9081 43.576ZM93.58 43.576C91.948 43.576 90.332 43.272 88.732 42.664C87.164 42.024 85.804 41.24 84.652 40.312L87.244 36.76C88.3 37.592 89.34 38.248 90.364 38.728C91.42 39.176 92.556 39.4 93.772 39.4C95.052 39.4 95.996 39.144 96.604 38.632C97.212 38.088 97.516 37.4 97.516 36.568C97.516 36.088 97.372 35.672 97.084 35.32C96.796 34.936 96.412 34.6 95.932 34.312C95.452 34.024 94.908 33.768 94.3 33.544C93.692 33.288 93.084 33.032 92.476 32.776C91.708 32.488 90.924 32.152 90.124 31.768C89.324 31.384 88.604 30.92 87.964 30.376C87.356 29.832 86.844 29.208 86.428 28.504C86.044 27.768 85.852 26.904 85.852 25.912C85.852 23.832 86.62 22.136 88.156 20.824C89.692 19.512 91.788 18.856 94.444 18.856C96.076 18.856 97.548 19.144 98.86 19.72C100.172 20.296 101.308 20.952 102.268 21.688L99.724 25.048C98.892 24.44 98.044 23.96 97.18 23.608C96.348 23.224 95.468 23.032 94.54 23.032C93.356 23.032 92.476 23.288 91.9 23.8C91.356 24.28 91.084 24.888 91.084 25.624C91.084 26.104 91.212 26.52 91.468 26.872C91.756 27.192 92.124 27.48 92.572 27.736C93.02 27.992 93.532 28.232 94.108 28.456C94.716 28.68 95.34 28.904 95.98 29.128C96.78 29.416 97.58 29.752 98.38 30.136C99.18 30.488 99.9 30.936 100.54 31.48C101.212 32.024 101.74 32.696 102.124 33.496C102.54 34.264 102.748 35.192 102.748 36.28C102.748 37.304 102.54 38.264 102.124 39.16C101.74 40.024 101.164 40.792 100.396 41.464C99.628 42.104 98.668 42.616 97.516 43C96.364 43.384 95.052 43.576 93.58 43.576ZM107.676 43V19.432H112.236L112.62 22.6H112.812C113.868 21.576 115.004 20.696 116.22 19.96C117.468 19.224 118.908 18.856 120.54 18.856C123.068 18.856 124.908 19.672 126.06 21.304C127.212 22.904 127.788 25.208 127.788 28.216V43H122.268V28.936C122.268 26.984 121.98 25.608 121.404 24.808C120.828 24.008 119.884 23.608 118.572 23.608C117.548 23.608 116.636 23.864 115.836 24.376C115.068 24.856 114.188 25.576 113.196 26.536V43H107.676ZM171.667 43.576C170.291 43.576 169.123 43.368 168.163 42.952C167.235 42.536 166.467 41.96 165.859 41.224C165.283 40.456 164.851 39.56 164.563 38.536C164.307 37.48 164.179 36.312 164.179 35.032V23.8H160.819V19.672L164.467 19.432L165.139 13H169.747V19.432H175.747V23.8H169.747V35.032C169.747 37.784 170.851 39.16 173.059 39.16C173.475 39.16 173.891 39.112 174.307 39.016C174.755 38.92 175.155 38.792 175.507 38.632L176.467 42.712C175.827 42.936 175.091 43.128 174.259 43.288C173.459 43.48 172.595 43.576 171.667 43.576ZM190.037 43.576C188.405 43.576 186.885 43.304 185.477 42.76C184.069 42.184 182.837 41.368 181.781 40.312C180.725 39.256 179.893 37.976 179.285 36.472C178.709 34.936 178.421 33.192 178.421 31.24C178.421 29.32 178.725 27.592 179.333 26.056C179.941 24.52 180.741 23.224 181.733 22.168C182.757 21.112 183.925 20.296 185.237 19.72C186.549 19.144 187.893 18.856 189.269 18.856C190.869 18.856 192.277 19.128 193.493 19.672C194.709 20.216 195.717 20.984 196.517 21.976C197.349 22.968 197.973 24.152 198.389 25.528C198.805 26.904 199.013 28.408 199.013 30.04C199.013 30.584 198.981 31.096 198.917 31.576C198.885 32.056 198.837 32.44 198.773 32.728H183.797C184.053 34.84 184.789 36.472 186.005 37.624C187.253 38.744 188.837 39.304 190.757 39.304C191.781 39.304 192.725 39.16 193.589 38.872C194.485 38.552 195.365 38.12 196.229 37.576L198.101 41.032C196.981 41.768 195.733 42.376 194.357 42.856C192.981 43.336 191.541 43.576 190.037 43.576ZM183.749 28.984H194.213C194.213 27.16 193.813 25.736 193.013 24.712C192.245 23.656 191.045 23.128 189.413 23.128C188.005 23.128 186.773 23.624 185.717 24.616C184.661 25.608 184.005 27.064 183.749 28.984ZM210.861 43.576C209.229 43.576 207.613 43.272 206.013 42.664C204.445 42.024 203.085 41.24 201.933 40.312L204.525 36.76C205.581 37.592 206.621 38.248 207.645 38.728C208.701 39.176 209.837 39.4 211.053 39.4C212.333 39.4 213.277 39.144 213.885 38.632C214.493 38.088 214.797 37.4 214.797 36.568C214.797 36.088 214.653 35.672 214.365 35.32C214.077 34.936 213.693 34.6 213.213 34.312C212.733 34.024 212.189 33.768 211.581 33.544C210.973 33.288 210.365 33.032 209.757 32.776C208.989 32.488 208.205 32.152 207.405 31.768C206.605 31.384 205.885 30.92 205.245 30.376C204.637 29.832 204.125 29.208 203.709 28.504C203.325 27.768 203.133 26.904 203.133 25.912C203.133 23.832 203.901 22.136 205.437 20.824C206.973 19.512 209.069 18.856 211.725 18.856C213.357 18.856 214.829 19.144 216.141 19.72C217.453 20.296 218.589 20.952 219.549 21.688L217.005 25.048C216.173 24.44 215.325 23.96 214.461 23.608C213.629 23.224 212.749 23.032 211.821 23.032C210.637 23.032 209.757 23.288 209.181 23.8C208.637 24.28 208.365 24.888 208.365 25.624C208.365 26.104 208.493 26.52 208.749 26.872C209.037 27.192 209.405 27.48 209.853 27.736C210.301 27.992 210.813 28.232 211.389 28.456C211.997 28.68 212.621 28.904 213.261 29.128C214.061 29.416 214.861 29.752 215.661 30.136C216.461 30.488 217.181 30.936 217.821 31.48C218.493 32.024 219.021 32.696 219.405 33.496C219.821 34.264 220.029 35.192 220.029 36.28C220.029 37.304 219.821 38.264 219.405 39.16C219.021 40.024 218.445 40.792 217.677 41.464C216.909 42.104 215.949 42.616 214.797 43C213.645 43.384 212.333 43.576 210.861 43.576Z" fill="#E80C75"/>
<path d="M15.0509 52.312H14.0509V53.312H15.0509V52.312ZM15.0509 19.432V18.432H14.0509V19.432H15.0509ZM19.6109 19.432L20.5992 19.2799L20.4688 18.432H19.6109V19.432ZM19.9949 21.928L19.0065 22.0801L19.137 22.928H19.9949V21.928ZM20.1869 21.928V22.928H20.5507L20.8295 22.6942L20.1869 21.928ZM23.4989 19.768L23.9461 20.6624L23.9461 20.6624L23.4989 19.768ZM31.1789 19.72L30.7215 20.6093L30.7366 20.617L30.7519 20.6242L31.1789 19.72ZM34.1069 22.12L34.904 21.5161L34.904 21.5161L34.1069 22.12ZM35.9309 25.912L34.9686 26.184L34.9686 26.184L35.9309 25.912ZM35.6909 36.28L34.7499 35.9413L34.7461 35.9522L35.6909 36.28ZM33.4829 40.264L34.234 40.9241L34.2389 40.9186L34.2437 40.9129L33.4829 40.264ZM30.2669 42.712L29.8388 41.8083L29.8388 41.8083L30.2669 42.712ZM23.4029 42.904L23.0021 43.8202L23.4029 42.904ZM20.4269 40.984L21.0818 40.2283L19.3434 38.7217L19.4275 41.0206L20.4269 40.984ZM20.5709 44.92H21.5709V44.9017L21.5702 44.8834L20.5709 44.92ZM20.5709 52.312V53.312H21.5709V52.312H20.5709ZM29.2589 37L30.0452 37.6179L30.0522 37.6088L29.2589 37ZM29.6429 25.384L28.7891 25.9046L28.7891 25.9046L29.6429 25.384ZM20.5709 26.056L19.8702 25.3426L19.5709 25.6365V26.056H20.5709ZM20.5709 37.048H19.5709V37.5098L19.9224 37.8092L20.5709 37.048ZM23.0669 38.584L23.4056 37.6431L23.4056 37.6431L23.0669 38.584ZM16.0509 52.312V19.432H14.0509V52.312H16.0509ZM15.0509 20.432H19.6109V18.432H15.0509V20.432ZM18.6225 19.5841L19.0065 22.0801L20.9832 21.7759L20.5992 19.2799L18.6225 19.5841ZM19.9949 22.928H20.1869V20.928H19.9949V22.928ZM20.8295 22.6942C21.7587 21.9149 22.7965 21.2372 23.9461 20.6624L23.0517 18.8736C21.7692 19.5148 20.5991 20.2771 19.5443 21.1618L20.8295 22.6942ZM23.9461 20.6624C25.0284 20.1213 26.1398 19.856 27.2909 19.856V17.856C25.8179 17.856 24.4013 18.1987 23.0517 18.8736L23.9461 20.6624ZM27.2909 19.856C28.6306 19.856 29.7651 20.1174 30.7215 20.6093L31.6362 18.8307C30.3527 18.1706 28.8951 17.856 27.2909 17.856V19.856ZM30.7519 20.6242C31.7522 21.0966 32.6031 21.791 33.3098 22.7239L34.904 21.5161C34.0106 20.3369 32.9096 19.4314 31.6059 18.8158L30.7519 20.6242ZM33.3098 22.7239C34.0238 23.6664 34.5813 24.8136 34.9686 26.184L36.8932 25.64C36.4485 24.0664 35.7899 22.6856 34.904 21.5161L33.3098 22.7239ZM34.9686 26.184C35.3553 27.5524 35.5549 29.1069 35.5549 30.856H37.5549C37.5549 28.9571 37.3385 27.2156 36.8932 25.64L34.9686 26.184ZM35.5549 30.856C35.5549 32.7774 35.2804 34.468 34.75 35.9413L36.6318 36.6187C37.2534 34.892 37.5549 32.9666 37.5549 30.856H35.5549ZM34.7461 35.9522C34.2365 37.4213 33.5574 38.6356 32.722 39.6151L34.2437 40.9129C35.2643 39.7164 36.0573 38.2747 36.6356 36.6078L34.7461 35.9522ZM32.7317 39.6039C31.8896 40.5622 30.9261 41.2932 29.8388 41.8083L30.695 43.6157C32.0396 42.9788 33.2202 42.0778 34.234 40.9241L32.7317 39.6039ZM29.8388 41.8083C28.7531 42.3225 27.635 42.576 26.4749 42.576V44.576C27.9388 44.576 29.3487 44.2535 30.695 43.6157L29.8388 41.8083ZM26.4749 42.576C25.601 42.576 24.713 42.3857 23.8037 41.9878L23.0021 43.8202C24.1408 44.3183 25.3007 44.576 26.4749 44.576V42.576ZM23.8037 41.9878C22.8836 41.5853 21.9759 41.0032 21.0818 40.2283L19.7719 41.7397C20.7979 42.6288 21.8741 43.3267 23.0021 43.8202L23.8037 41.9878ZM19.4275 41.0206L19.5715 44.9566L21.5702 44.8834L21.4262 40.9474L19.4275 41.0206ZM19.5709 44.92V52.312H21.5709V44.92H19.5709ZM20.5709 51.312H15.0509V53.312H20.5709V51.312ZM25.3229 40.016C27.2281 40.016 28.8192 39.1782 30.0452 37.6178L28.4726 36.3822C27.5865 37.5098 26.5536 38.016 25.3229 38.016V40.016ZM30.0522 37.6088C31.2981 35.9854 31.8429 33.6983 31.8429 30.904H29.8429C29.8429 33.4857 29.3317 35.2626 28.4656 36.3912L30.0522 37.6088ZM31.8429 30.904C31.8429 28.4438 31.4307 26.3953 30.4967 24.8634L28.7891 25.9046C29.455 26.9967 29.8429 28.6282 29.8429 30.904H31.8429ZM30.4967 24.8634C29.4822 23.1996 27.8273 22.416 25.7549 22.416V24.416C27.2665 24.416 28.2036 24.9444 28.7891 25.9046L30.4967 24.8634ZM25.7549 22.416C23.7217 22.416 21.7555 23.4909 19.8702 25.3426L21.2716 26.7694C22.9702 25.1011 24.4601 24.416 25.7549 24.416V22.416ZM19.5709 26.056V37.048H21.5709V26.056H19.5709ZM19.9224 37.8092C20.8492 38.5987 21.7841 39.185 22.7282 39.5249L23.4056 37.6431C22.7497 37.407 22.0206 36.9693 21.2193 36.2868L19.9224 37.8092ZM22.7282 39.5249C23.6149 39.8441 24.4822 40.016 25.3229 40.016V38.016C24.7555 38.016 24.1188 37.8999 23.4056 37.6431L22.7282 39.5249ZM42.2541 41.704L41.547 42.4112L41.556 42.42L42.2541 41.704ZM41.1021 33.352L40.2253 32.8711L40.2198 32.8814L41.1021 33.352ZM43.5981 30.808L43.0766 29.9547L43.066 29.9614L43.5981 30.808ZM47.9181 29.032L47.655 28.0672L47.6505 28.0685L47.9181 29.032ZM54.2061 27.928L54.3108 28.9225L55.2546 28.8232L55.2047 27.8754L54.2061 27.928ZM53.9181 26.2L52.9419 26.4169L52.9492 26.4498L52.9588 26.4822L53.9181 26.2ZM53.1981 24.712L52.3844 25.2932L52.4082 25.3266L52.4347 25.3579L53.1981 24.712ZM51.9021 23.704L51.4763 24.6088L51.4986 24.6193L51.5214 24.6287L51.9021 23.704ZM46.4781 23.992L46.1067 23.0635L46.0974 23.0673L46.4781 23.992ZM43.2621 25.624L42.3842 26.1029L42.8854 27.0216L43.7804 26.4792L43.2621 25.624ZM41.2461 21.928L40.7106 21.0835L39.9199 21.5849L40.3682 22.4069L41.2461 21.928ZM57.5181 21.496L56.7442 22.1292L56.7505 22.1369L56.7569 22.1445L57.5181 21.496ZM59.7261 43V44H60.7261V43H59.7261ZM55.1661 43L54.1769 43.1465L54.3034 44H55.1661V43ZM54.7821 40.408L55.7713 40.2615L55.6449 39.408H54.7821V40.408ZM54.5901 40.408V39.408H54.223L53.9431 39.6455L54.5901 40.408ZM51.1821 42.664L50.7349 41.7695L50.7253 41.7744L51.1821 42.664ZM51.6621 38.584L51.1735 37.7115L51.1659 37.7158L51.1583 37.7202L51.6621 38.584ZM54.2061 36.664L54.8866 37.3968L55.2061 37.1001V36.664H54.2061ZM54.2061 31.384H55.2061V30.2568L54.087 30.3911L54.2061 31.384ZM50.1741 32.152L49.892 31.1926L49.892 31.1926L50.1741 32.152ZM47.5341 33.256L48.0303 34.1242L48.0455 34.1155L48.0605 34.1063L47.5341 33.256ZM46.6221 38.536L46.0221 39.336L46.0221 39.336L46.6221 38.536ZM47.2941 42.576C45.4291 42.576 44.015 42.0242 42.9522 40.988L41.556 42.42C43.0533 43.8798 44.9992 44.576 47.2941 44.576V42.576ZM42.9612 40.9969C41.8971 39.9327 41.3341 38.5217 41.3341 36.664H39.3341C39.3341 38.9663 40.0512 40.9153 41.547 42.4111L42.9612 40.9969ZM41.3341 36.664C41.3341 35.5558 41.5604 34.6177 41.9845 33.8226L40.2198 32.8814C39.6198 34.0063 39.3341 35.2762 39.3341 36.664H41.3341ZM41.9789 33.8328C42.4282 33.0136 43.1299 32.2835 44.1303 31.6546L43.066 29.9614C41.8263 30.7405 40.8641 31.7064 40.2253 32.8712L41.9789 33.8328ZM44.1196 31.6613C45.1715 31.0185 46.5197 30.4583 48.1858 29.9955L47.6505 28.0685C45.8605 28.5657 44.3288 29.1895 43.0767 29.9547L44.1196 31.6613ZM48.1812 29.9968C49.8752 29.5348 51.9155 29.1746 54.3108 28.9225L54.1014 26.9335C51.6327 27.1934 49.481 27.5692 47.655 28.0672L48.1812 29.9968ZM55.2047 27.8754C55.1689 27.1953 55.061 26.5419 54.8775 25.9178L52.9588 26.4822C53.0952 26.9461 53.1793 27.4447 53.2075 27.9806L55.2047 27.8754ZM54.8943 25.9831C54.7342 25.2623 54.4267 24.6158 53.9615 24.0661L52.4347 25.3579C52.6736 25.6402 52.8461 25.9857 52.9419 26.4169L54.8943 25.9831ZM54.0119 24.1308C53.5751 23.5193 52.9882 23.0697 52.2829 22.7793L51.5214 24.6287C51.9041 24.7863 52.1812 25.0087 52.3844 25.2932L54.0119 24.1308ZM52.3279 22.7992C51.6143 22.4634 50.787 22.32 49.8861 22.32V24.32C50.5853 24.32 51.1019 24.4326 51.4763 24.6088L52.3279 22.7992ZM49.8861 22.32C48.601 22.32 47.3392 22.5705 46.1067 23.0635L46.8495 24.9205C47.857 24.5175 48.8673 24.32 49.8861 24.32V22.32ZM46.0974 23.0673C44.9595 23.5358 43.8417 24.1034 42.7438 24.7688L43.7804 26.4792C44.7946 25.8646 45.8207 25.3442 46.8589 24.9167L46.0974 23.0673ZM44.14 25.1451L42.124 21.4491L40.3682 22.4069L42.3842 26.1029L44.14 25.1451ZM41.7817 22.7725C43.0283 21.9819 44.4367 21.2917 46.0112 20.7051L45.313 18.8309C43.6235 19.4603 42.0879 20.2101 40.7106 21.0835L41.7817 22.7725ZM46.0112 20.7051C47.5225 20.1421 49.1633 19.856 50.9421 19.856V17.856C48.945 17.856 47.0658 18.1779 45.313 18.8309L46.0112 20.7051ZM50.9421 19.856C53.6815 19.856 55.5472 20.6663 56.7442 22.1292L58.2921 20.8628C56.6091 18.8057 54.0907 17.856 50.9421 17.856V19.856ZM56.7569 22.1445C58.0181 23.6251 58.7261 25.8686 58.7261 29.032H60.7261C60.7261 25.6034 59.9621 22.8229 58.2794 20.8475L56.7569 22.1445ZM58.7261 29.032V43H60.7261V29.032H58.7261ZM59.7261 42H55.1661V44H59.7261V42ZM56.1553 42.8535L55.7713 40.2615L53.7929 40.5545L54.1769 43.1465L56.1553 42.8535ZM54.7821 39.408H54.5901V41.408H54.7821V39.408ZM53.9431 39.6455C52.9471 40.4907 51.8779 41.1981 50.7349 41.7696L51.6293 43.5584C52.9183 42.9139 54.1212 42.1173 55.2371 41.1705L53.9431 39.6455ZM50.7253 41.7744C49.6908 42.3057 48.5527 42.576 47.2941 42.576V44.576C48.8515 44.576 50.3054 44.2383 51.6389 43.5536L50.7253 41.7744ZM49.0701 40.256C50.1926 40.256 51.2329 39.9921 52.166 39.4478L51.1583 37.7202C50.5553 38.0719 49.8677 38.256 49.0701 38.256V40.256ZM52.1507 39.4565C53.0386 38.9593 53.9504 38.2661 54.8866 37.3968L53.5257 35.9312C52.6698 36.7259 51.8857 37.3127 51.1735 37.7115L52.1507 39.4565ZM55.2061 36.664V31.384H53.2061V36.664H55.2061ZM54.087 30.3911C52.4528 30.5872 51.0503 30.8519 49.892 31.1926L50.4563 33.1114C51.474 32.8121 52.7595 32.5648 54.3253 32.3769L54.087 30.3911ZM49.892 31.1926C48.7519 31.5279 47.781 31.9271 47.0078 32.4057L48.0605 34.1063C48.6312 33.7529 49.4203 33.4161 50.4563 33.1114L49.892 31.1926ZM47.038 32.3878C46.2575 32.8337 45.6231 33.3976 45.2226 34.1097L46.9657 35.0903C47.1411 34.7784 47.4667 34.4463 48.0303 34.1242L47.038 32.3878ZM45.2226 34.1097C44.8521 34.7683 44.6621 35.4807 44.6621 36.232H46.6621C46.6621 35.8313 46.7601 35.4557 46.9657 35.0903L45.2226 34.1097ZM44.6621 36.232C44.6621 37.4931 45.0539 38.6098 46.0221 39.336L47.2221 37.736C46.9103 37.5022 46.6621 37.0829 46.6621 36.232H44.6621ZM46.0221 39.336C46.8732 39.9743 47.9146 40.256 49.0701 40.256V38.256C48.2416 38.256 47.651 38.0577 47.2221 37.736L46.0221 39.336ZM68.0601 42.664L67.6822 43.5898L67.6935 43.5945L67.7049 43.5988L68.0601 42.664ZM63.9801 40.312L63.1723 39.7225L62.6103 40.4927L63.3528 41.0908L63.9801 40.312ZM66.5721 36.76L67.191 35.9745L66.376 35.3324L65.7643 36.1705L66.5721 36.76ZM69.6921 38.728L69.2677 39.6335L69.2845 39.6413L69.3016 39.6486L69.6921 38.728ZM75.9321 38.632L76.5763 39.3969L76.5877 39.3872L76.5989 39.3772L75.9321 38.632ZM76.4121 35.32L75.6121 35.92L75.6248 35.9369L75.6382 35.9532L76.4121 35.32ZM75.2601 34.312L74.7456 35.1695L74.7456 35.1695L75.2601 34.312ZM73.6281 33.544L73.2401 34.4656L73.2611 34.4745L73.2824 34.4823L73.6281 33.544ZM71.8041 32.776L72.1922 31.8544L72.1739 31.8466L72.1552 31.8397L71.8041 32.776ZM69.4521 31.768L69.8849 30.8665L69.8849 30.8665L69.4521 31.768ZM67.2921 30.376L66.6253 31.1212L66.6348 31.1297L66.6445 31.1379L67.2921 30.376ZM65.7561 28.504L64.8695 28.9666L64.8818 28.99L64.8952 29.0127L65.7561 28.504ZM67.4841 20.824L68.1336 21.5844L68.1336 21.5844L67.4841 20.824ZM81.5961 21.688L82.3934 22.2916L82.9934 21.4992L82.2046 20.8944L81.5961 21.688ZM79.0521 25.048L78.4621 25.8554L79.2559 26.4355L79.8494 25.6516L79.0521 25.048ZM76.5081 23.608L76.0891 24.516L76.1097 24.5255L76.1308 24.5341L76.5081 23.608ZM71.2281 23.8L71.8898 24.5498L71.8925 24.5474L71.2281 23.8ZM70.7961 26.872L69.9874 27.4602L70.018 27.5023L70.0528 27.541L70.7961 26.872ZM71.9001 27.736L72.3963 26.8678L72.3963 26.8678L71.9001 27.736ZM73.4361 28.456L73.0737 29.388L73.082 29.3912L73.0904 29.3943L73.4361 28.456ZM75.3081 29.128L75.6469 28.1871L75.6385 28.1841L75.3081 29.128ZM77.7081 30.136L77.2754 31.0375L77.2903 31.0447L77.3054 31.0513L77.7081 30.136ZM79.8681 31.48L79.2205 32.2419L79.2296 32.2497L79.2389 32.2572L79.8681 31.48ZM81.4521 33.496L80.5506 33.9287L80.5612 33.9508L80.5728 33.9723L81.4521 33.496ZM81.4521 39.16L80.5451 38.7389L80.5417 38.7463L80.5383 38.7539L81.4521 39.16ZM79.7241 41.464L80.3643 42.2322L80.3736 42.2245L80.3826 42.2166L79.7241 41.464ZM76.8441 43L77.1604 43.9487L77.1604 43.9487L76.8441 43ZM72.9081 42.576C71.4034 42.576 69.9075 42.2962 68.4153 41.7292L67.7049 43.5988C69.4128 44.2478 71.1489 44.576 72.9081 44.576V42.576ZM68.438 41.7382C66.9471 41.1296 65.6739 40.3923 64.6075 39.5332L63.3528 41.0908C64.5904 42.0877 66.0371 42.9184 67.6822 43.5898L68.438 41.7382ZM64.7879 40.9015L67.3799 37.3495L65.7643 36.1705L63.1723 39.7225L64.7879 40.9015ZM65.9533 37.5455C67.0584 38.4162 68.163 39.1156 69.2677 39.6335L70.1166 37.8225C69.1733 37.3804 68.1979 36.7678 67.191 35.9745L65.9533 37.5455ZM69.3016 39.6486C70.4884 40.1521 71.7581 40.4 73.1001 40.4V38.4C72.0101 38.4 71.0078 38.1999 70.0827 37.8074L69.3016 39.6486ZM73.1001 40.4C74.4811 40.4 75.7064 40.1294 76.5763 39.3969L75.288 37.8671C74.9418 38.1586 74.2792 38.4 73.1001 38.4V40.4ZM76.5989 39.3772C77.4237 38.6393 77.8441 37.6781 77.8441 36.568H75.8441C75.8441 37.1219 75.6566 37.5367 75.2653 37.8868L76.5989 39.3772ZM77.8441 36.568C77.8441 35.871 77.6288 35.2278 77.1861 34.6868L75.6382 35.9532C75.7715 36.1162 75.8441 36.305 75.8441 36.568H77.8441ZM77.2121 34.72C76.8347 34.2168 76.3474 33.7982 75.7746 33.4545L74.7456 35.1695C75.1329 35.4018 75.4135 35.6552 75.6121 35.92L77.2121 34.72ZM75.7746 33.4545C75.2334 33.1298 74.6316 32.848 73.9738 32.6057L73.2824 34.4823C73.8407 34.688 74.3268 34.9182 74.7456 35.1695L75.7746 33.4545ZM74.0162 32.6224C73.4082 32.3664 72.8002 32.1104 72.1922 31.8544L71.4161 33.6976C72.0241 33.9536 72.6321 34.2096 73.2401 34.4656L74.0162 32.6224ZM72.1552 31.8397C71.4171 31.5629 70.6603 31.2387 69.8849 30.8665L69.0194 32.6695C69.8439 33.0653 70.6552 33.4131 71.453 33.7123L72.1552 31.8397ZM69.8849 30.8665C69.1578 30.5175 68.5108 30.0995 67.9398 29.6141L66.6445 31.1379C67.3534 31.7405 68.1464 32.2505 69.0194 32.6695L69.8849 30.8665ZM67.9589 29.6308C67.4276 29.1553 66.981 28.6111 66.6171 27.9953L64.8952 29.0127C65.3633 29.8049 65.9407 30.5087 66.6253 31.1212L67.9589 29.6308ZM66.6427 28.0414C66.3464 27.4736 66.1801 26.7741 66.1801 25.912H64.1801C64.1801 27.0339 64.3978 28.0624 64.8695 28.9666L66.6427 28.0414ZM66.1801 25.912C66.1801 24.1146 66.8275 22.7 68.1336 21.5844L66.8346 20.0636C65.0687 21.572 64.1801 23.5494 64.1801 25.912H66.1801ZM68.1336 21.5844C69.4381 20.4701 71.2782 19.856 73.7721 19.856V17.856C70.9541 17.856 68.6022 18.5539 66.8346 20.0636L68.1336 21.5844ZM73.7721 19.856C75.2849 19.856 76.6173 20.1225 77.7861 20.6356L78.5901 18.8044C77.1349 18.1655 75.5233 17.856 73.7721 17.856V19.856ZM77.7861 20.6356C79.0378 21.1851 80.1018 21.8024 80.9877 22.4816L82.2046 20.8944C81.1705 20.1016 79.9625 19.4069 78.5901 18.8044L77.7861 20.6356ZM80.7989 21.0844L78.2549 24.4444L79.8494 25.6516L82.3934 22.2916L80.7989 21.0844ZM79.6421 24.2406C78.7511 23.5895 77.8323 23.0677 76.8854 22.6819L76.1308 24.5341C76.912 24.8523 77.6891 25.2905 78.4621 25.8554L79.6421 24.2406ZM76.9272 22.7C75.9621 22.2546 74.9389 22.032 73.8681 22.032V24.032C74.6533 24.032 75.3902 24.1934 76.0891 24.516L76.9272 22.7ZM73.8681 22.032C72.5656 22.032 71.3992 22.3099 70.5638 23.0526L71.8925 24.5474C72.209 24.2661 72.8027 24.032 73.8681 24.032V22.032ZM70.5665 23.0502C69.8038 23.7231 69.4121 24.6058 69.4121 25.624H71.4121C71.4121 25.1702 71.5644 24.8369 71.8897 24.5498L70.5665 23.0502ZM69.4121 25.624C69.4121 26.2925 69.5943 26.9197 69.9874 27.4602L71.6049 26.2838C71.486 26.1203 71.4121 25.9155 71.4121 25.624H69.4121ZM70.0528 27.541C70.4246 27.954 70.8813 28.3056 71.404 28.6042L72.3963 26.8678C72.0229 26.6544 71.7436 26.43 71.5394 26.203L70.0528 27.541ZM71.404 28.6042C71.9023 28.889 72.4603 29.1495 73.0737 29.388L73.7986 27.524C73.2599 27.3145 72.7939 27.095 72.3963 26.8678L71.404 28.6042ZM73.0904 29.3943C73.7038 29.6203 74.3329 29.8461 74.9778 30.0719L75.6385 28.1841C75.0034 27.9619 74.3845 27.7397 73.7818 27.5177L73.0904 29.3943ZM74.9694 30.0689C75.7361 30.3449 76.5047 30.6676 77.2754 31.0375L78.1409 29.2345C77.3115 28.8364 76.4802 28.4871 75.6468 28.1871L74.9694 30.0689ZM77.3054 31.0513C78.0204 31.3659 78.6572 31.7632 79.2205 32.2419L80.5158 30.7181C79.799 30.1088 78.9959 29.6101 78.1109 29.2207L77.3054 31.0513ZM79.2389 32.2572C79.7927 32.7055 80.229 33.2587 80.5506 33.9287L82.3536 33.0633C81.9073 32.1333 81.2876 31.3425 80.4973 30.7028L79.2389 32.2572ZM80.5728 33.9723C80.8925 34.5623 81.0761 35.3181 81.0761 36.28H83.0761C83.0761 35.0659 82.8438 33.9657 82.3314 33.0197L80.5728 33.9723ZM81.0761 36.28C81.0761 37.164 80.8976 37.9797 80.5451 38.7389L82.3591 39.5811C82.8387 38.5483 83.0761 37.444 83.0761 36.28H81.0761ZM80.5383 38.7539C80.2178 39.4749 79.7332 40.1273 79.0656 40.7114L80.3826 42.2166C81.2511 41.4567 81.9184 40.5731 82.3659 39.5661L80.5383 38.7539ZM79.0839 40.6958C78.4299 41.2408 77.5863 41.6985 76.5279 42.0513L77.1604 43.9487C78.406 43.5335 79.4824 42.9672 80.3643 42.2322L79.0839 40.6958ZM76.5279 42.0513C75.4969 42.395 74.2947 42.576 72.9081 42.576V44.576C74.4656 44.576 75.8874 44.373 77.1604 43.9487L76.5279 42.0513ZM88.732 42.664L88.3541 43.5898L88.3654 43.5945L88.3768 43.5988L88.732 42.664ZM84.652 40.312L83.8442 39.7225L83.2822 40.4927L84.0247 41.0908L84.652 40.312ZM87.244 36.76L87.8629 35.9745L87.0478 35.3324L86.4362 36.1705L87.244 36.76ZM90.364 38.728L89.9396 39.6335L89.9564 39.6413L89.9735 39.6486L90.364 38.728ZM96.604 38.632L97.2481 39.3969L97.2596 39.3872L97.2708 39.3772L96.604 38.632ZM97.084 35.32L96.284 35.92L96.2967 35.9369L96.31 35.9532L97.084 35.32ZM95.932 34.312L95.4175 35.1695L95.4175 35.1695L95.932 34.312ZM94.3 33.544L93.9119 34.4656L93.9329 34.4745L93.9543 34.4823L94.3 33.544ZM92.476 32.776L92.8641 31.8544L92.8457 31.8466L92.8271 31.8397L92.476 32.776ZM90.124 31.768L90.5567 30.8665L90.5567 30.8665L90.124 31.768ZM87.964 30.376L87.2972 31.1212L87.3067 31.1297L87.3164 31.1379L87.964 30.376ZM86.428 28.504L85.5414 28.9666L85.5536 28.99L85.5671 29.0127L86.428 28.504ZM88.156 20.824L88.8055 21.5844L88.8055 21.5844L88.156 20.824ZM102.268 21.688L103.065 22.2916L103.665 21.4992L102.876 20.8944L102.268 21.688ZM99.724 25.048L99.134 25.8554L99.9278 26.4355L100.521 25.6516L99.724 25.048ZM97.18 23.608L96.7609 24.516L96.7816 24.5255L96.8027 24.5341L97.18 23.608ZM91.9 23.8L92.5616 24.5498L92.5644 24.5474L91.9 23.8ZM91.468 26.872L90.6593 27.4602L90.6899 27.5023L90.7247 27.541L91.468 26.872ZM92.572 27.736L93.0681 26.8678L93.0681 26.8678L92.572 27.736ZM94.108 28.456L93.7456 29.388L93.7539 29.3912L93.7623 29.3943L94.108 28.456ZM95.98 29.128L96.3187 28.1871L96.3104 28.1841L95.98 29.128ZM98.38 30.136L97.9473 31.0375L97.9622 31.0447L97.9773 31.0513L98.38 30.136ZM100.54 31.48L99.8924 32.2419L99.9015 32.2497L99.9108 32.2572L100.54 31.48ZM102.124 33.496L101.222 33.9287L101.233 33.9508L101.245 33.9723L102.124 33.496ZM102.124 39.16L101.217 38.7389L101.214 38.7463L101.21 38.7539L102.124 39.16ZM100.396 41.464L101.036 42.2322L101.045 42.2245L101.055 42.2166L100.396 41.464ZM97.516 43L97.8322 43.9487L97.8322 43.9487L97.516 43ZM93.58 42.576C92.0752 42.576 90.5794 42.2962 89.0872 41.7292L88.3768 43.5988C90.0846 44.2478 91.8208 44.576 93.58 44.576V42.576ZM89.1099 41.7382C87.619 41.1296 86.3457 40.3923 85.2793 39.5332L84.0247 41.0908C85.2623 42.0877 86.709 42.9184 88.3541 43.5898L89.1099 41.7382ZM85.4598 40.9015L88.0518 37.3495L86.4362 36.1705L83.8442 39.7225L85.4598 40.9015ZM86.6251 37.5455C87.7302 38.4162 88.8349 39.1156 89.9396 39.6335L90.7884 37.8225C89.8451 37.3804 88.8698 36.7678 87.8629 35.9745L86.6251 37.5455ZM89.9735 39.6486C91.1603 40.1521 92.43 40.4 93.772 40.4V38.4C92.682 38.4 91.6797 38.1999 90.7546 37.8074L89.9735 39.6486ZM93.772 40.4C95.1529 40.4 96.3783 40.1294 97.2481 39.3969L95.9599 37.8671C95.6137 38.1586 94.9511 38.4 93.772 38.4V40.4ZM97.2708 39.3772C98.0956 38.6393 98.516 37.6781 98.516 36.568H96.516C96.516 37.1219 96.3284 37.5367 95.9372 37.8868L97.2708 39.3772ZM98.516 36.568C98.516 35.871 98.3006 35.2278 97.858 34.6868L96.31 35.9532C96.4434 36.1162 96.516 36.305 96.516 36.568H98.516ZM97.884 34.72C97.5066 34.2168 97.0192 33.7982 96.4465 33.4545L95.4175 35.1695C95.8048 35.4018 96.0854 35.6552 96.284 35.92L97.884 34.72ZM96.4465 33.4545C95.9053 33.1298 95.3034 32.848 94.6457 32.6057L93.9543 34.4823C94.5126 34.688 94.9987 34.9182 95.4175 35.1695L96.4465 33.4545ZM94.6881 32.6224C94.0801 32.3664 93.4721 32.1104 92.8641 31.8544L92.0879 33.6976C92.6959 33.9536 93.3039 34.2096 93.9119 34.4656L94.6881 32.6224ZM92.8271 31.8397C92.089 31.5629 91.3322 31.2387 90.5567 30.8665L89.6913 32.6695C90.5158 33.0653 91.327 33.4131 92.1249 33.7123L92.8271 31.8397ZM90.5567 30.8665C89.8297 30.5175 89.1827 30.0995 88.6116 29.6141L87.3164 31.1379C88.0253 31.7405 88.8183 32.2505 89.6913 32.6695L90.5567 30.8665ZM88.6308 29.6308C88.0994 29.1553 87.6529 28.6111 87.2889 27.9953L85.5671 29.0127C86.0351 29.8049 86.6126 30.5087 87.2972 31.1212L88.6308 29.6308ZM87.3146 28.0414C87.0183 27.4736 86.852 26.7741 86.852 25.912H84.852C84.852 27.0339 85.0697 28.0624 85.5414 28.9666L87.3146 28.0414ZM86.852 25.912C86.852 24.1146 87.4994 22.7 88.8055 21.5844L87.5065 20.0636C85.7406 21.572 84.852 23.5494 84.852 25.912H86.852ZM88.8055 21.5844C90.11 20.4701 91.9501 19.856 94.444 19.856V17.856C91.6259 17.856 89.274 18.5539 87.5065 20.0636L88.8055 21.5844ZM94.444 19.856C95.9568 19.856 97.2892 20.1225 98.458 20.6356L99.262 18.8044C97.8068 18.1655 96.1952 17.856 94.444 17.856V19.856ZM98.458 20.6356C99.7096 21.1851 100.774 21.8024 101.66 22.4816L102.876 20.8944C101.842 20.1016 100.634 19.4069 99.262 18.8044L98.458 20.6356ZM101.471 21.0844L98.9267 24.4444L100.521 25.6516L103.065 22.2916L101.471 21.0844ZM100.314 24.2406C99.423 23.5895 98.5042 23.0677 97.5573 22.6819L96.8027 24.5341C97.5838 24.8523 98.361 25.2905 99.134 25.8554L100.314 24.2406ZM97.5991 22.7C96.634 22.2546 95.6108 22.032 94.54 22.032V24.032C95.3252 24.032 96.062 24.1934 96.7609 24.516L97.5991 22.7ZM94.54 22.032C93.2375 22.032 92.0711 22.3099 91.2356 23.0526L92.5644 24.5474C92.8809 24.2661 93.4745 24.032 94.54 24.032V22.032ZM91.2384 23.0502C90.4757 23.7231 90.084 24.6058 90.084 25.624H92.084C92.084 25.1702 92.2363 24.8369 92.5616 24.5498L91.2384 23.0502ZM90.084 25.624C90.084 26.2925 90.2662 26.9197 90.6593 27.4602L92.2767 26.2838C92.1578 26.1203 92.084 25.9155 92.084 25.624H90.084ZM90.7247 27.541C91.0965 27.954 91.5532 28.3056 92.0759 28.6042L93.0681 26.8678C92.6948 26.6544 92.4155 26.43 92.2113 26.203L90.7247 27.541ZM92.0759 28.6042C92.5742 28.889 93.1322 29.1495 93.7456 29.388L94.4704 27.524C93.9318 27.3145 93.4658 27.095 93.0681 26.8678L92.0759 28.6042ZM93.7623 29.3943C94.3756 29.6203 95.0048 29.8461 95.6497 30.0719L96.3104 28.1841C95.6752 27.9619 95.0564 27.7397 94.4537 27.5177L93.7623 29.3943ZM95.6413 30.0689C96.4079 30.3449 97.1766 30.6676 97.9473 31.0375L98.8127 29.2345C97.9834 28.8364 97.1521 28.4871 96.3187 28.1871L95.6413 30.0689ZM97.9773 31.0513C98.6922 31.3659 99.3291 31.7632 99.8924 32.2419L101.188 30.7181C100.471 30.1088 99.6678 29.6101 98.7827 29.2207L97.9773 31.0513ZM99.9108 32.2572C100.465 32.7055 100.901 33.2587 101.222 33.9287L103.026 33.0633C102.579 32.1333 101.959 31.3425 101.169 30.7028L99.9108 32.2572ZM101.245 33.9723C101.564 34.5623 101.748 35.3181 101.748 36.28H103.748C103.748 35.0659 103.516 33.9657 103.003 33.0197L101.245 33.9723ZM101.748 36.28C101.748 37.164 101.569 37.9797 101.217 38.7389L103.031 39.5811C103.511 38.5483 103.748 37.444 103.748 36.28H101.748ZM101.21 38.7539C100.89 39.4749 100.405 40.1273 99.7375 40.7114L101.055 42.2166C101.923 41.4567 102.59 40.5731 103.038 39.5661L101.21 38.7539ZM99.7558 40.6958C99.1017 41.2408 98.2582 41.6985 97.1998 42.0513L97.8322 43.9487C99.0778 43.5335 100.154 42.9672 101.036 42.2322L99.7558 40.6958ZM97.1998 42.0513C96.1687 42.395 94.9666 42.576 93.58 42.576V44.576C95.1374 44.576 96.5593 44.373 97.8322 43.9487L97.1998 42.0513ZM107.676 43H106.676V44H107.676V43ZM107.676 19.432V18.432H106.676V19.432H107.676ZM112.236 19.432L113.229 19.3117L113.122 18.432H112.236V19.432ZM112.62 22.6L111.627 22.7203L111.734 23.6H112.62V22.6ZM112.812 22.6V23.6H113.217L113.508 23.3179L112.812 22.6ZM116.22 19.96L115.712 19.0986L115.702 19.1045L116.22 19.96ZM126.06 21.304L125.243 21.8807L125.248 21.8883L126.06 21.304ZM127.788 43V44H128.788V43H127.788ZM122.268 43H121.268V44H122.268V43ZM121.404 24.808L122.215 24.2237L122.215 24.2237L121.404 24.808ZM115.836 24.376L116.366 25.224L116.375 25.2183L115.836 24.376ZM113.196 26.536L112.5 25.8174L112.196 26.1122V26.536H113.196ZM113.196 43V44H114.196V43H113.196ZM108.676 43V19.432H106.676V43H108.676ZM107.676 20.432H112.236V18.432H107.676V20.432ZM111.243 19.5523L111.627 22.7203L113.613 22.4797L113.229 19.3117L111.243 19.5523ZM112.62 23.6H112.812V21.6H112.62V23.6ZM113.508 23.3179C114.512 22.3445 115.588 21.5112 116.738 20.8155L115.702 19.1045C114.419 19.8808 113.224 20.8075 112.116 21.8821L113.508 23.3179ZM116.728 20.8214C117.803 20.1872 119.063 19.856 120.54 19.856V17.856C118.752 17.856 117.133 18.2608 115.712 19.0986L116.728 20.8214ZM120.54 19.856C122.839 19.856 124.328 20.5841 125.243 21.8807L126.877 20.7273C125.488 18.7599 123.296 17.856 120.54 17.856V19.856ZM125.248 21.8883C126.229 23.2499 126.788 25.3141 126.788 28.216H128.788C128.788 25.1019 128.195 22.5581 126.871 20.7197L125.248 21.8883ZM126.788 28.216V43H128.788V28.216H126.788ZM127.788 42H122.268V44H127.788V42ZM123.268 43V28.936H121.268V43H123.268ZM123.268 28.936C123.268 26.9463 122.986 25.2942 122.215 24.2237L120.592 25.3923C120.974 25.9218 121.268 27.0217 121.268 28.936H123.268ZM122.215 24.2237C121.392 23.0808 120.089 22.608 118.572 22.608V24.608C119.679 24.608 120.263 24.9352 120.592 25.3923L122.215 24.2237ZM118.572 22.608C117.372 22.608 116.27 22.9107 115.297 23.5337L116.375 25.2183C117.001 24.8173 117.723 24.608 118.572 24.608V22.608ZM115.306 23.528C114.456 24.0592 113.52 24.8311 112.5 25.8174L113.891 27.2546C114.856 26.3209 115.68 25.6528 116.366 25.224L115.306 23.528ZM112.196 26.536V43H114.196V26.536H112.196ZM113.196 42H107.676V44H113.196V42ZM168.163 42.952L167.754 43.8646L167.766 43.8696L168.163 42.952ZM165.859 41.224L165.059 41.824L165.073 41.8428L165.088 41.8609L165.859 41.224ZM164.563 38.536L163.592 38.7716L163.596 38.7893L163.601 38.8067L164.563 38.536ZM164.179 23.8H165.179V22.8H164.179V23.8ZM160.819 23.8H159.819V24.8H160.819V23.8ZM160.819 19.672L160.754 18.6742L159.819 18.7356V19.672H160.819ZM164.467 19.432L164.533 20.4298L165.374 20.3745L165.462 19.5359L164.467 19.432ZM165.139 13V12H164.238L164.145 12.8961L165.139 13ZM169.747 13H170.747V12H169.747V13ZM169.747 19.432H168.747V20.432H169.747V19.432ZM175.747 19.432H176.747V18.432H175.747V19.432ZM175.747 23.8V24.8H176.747V23.8H175.747ZM169.747 23.8V22.8H168.747V23.8H169.747ZM174.307 39.016L174.098 38.0382L174.09 38.0398L174.083 38.0416L174.307 39.016ZM175.507 38.632L176.481 38.403L176.202 37.2178L175.094 37.7216L175.507 38.632ZM176.467 42.712L176.798 43.6559L177.647 43.3587L177.441 42.483L176.467 42.712ZM174.259 43.288L174.071 42.306L174.048 42.3103L174.026 42.3156L174.259 43.288ZM171.667 42.576C170.387 42.576 169.363 42.3818 168.561 42.0344L167.766 43.8696C168.884 44.3542 170.196 44.576 171.667 44.576V42.576ZM168.572 42.0395C167.775 41.6821 167.134 41.197 166.63 40.5871L165.088 41.8609C165.801 42.723 166.695 43.3899 167.754 43.8645L168.572 42.0395ZM166.659 40.624C166.165 39.9649 165.784 39.1832 165.526 38.2653L163.601 38.8067C163.919 39.9368 164.402 40.9471 165.059 41.824L166.659 40.624ZM165.535 38.3004C165.301 37.3338 165.179 36.2463 165.179 35.032H163.179C163.179 36.3777 163.314 37.6262 163.592 38.7716L165.535 38.3004ZM165.179 35.032V23.8H163.179V35.032H165.179ZM164.179 22.8H160.819V24.8H164.179V22.8ZM161.819 23.8V19.672H159.819V23.8H161.819ZM160.885 20.6698L164.533 20.4298L164.402 18.4342L160.754 18.6742L160.885 20.6698ZM165.462 19.5359L166.134 13.1039L164.145 12.8961L163.473 19.3281L165.462 19.5359ZM165.139 14H169.747V12H165.139V14ZM168.747 13V19.432H170.747V13H168.747ZM169.747 20.432H175.747V18.432H169.747V20.432ZM174.747 19.432V23.8H176.747V19.432H174.747ZM175.747 22.8H169.747V24.8H175.747V22.8ZM168.747 23.8V35.032H170.747V23.8H168.747ZM168.747 35.032C168.747 36.5154 169.041 37.813 169.795 38.7538C170.584 39.7367 171.736 40.16 173.059 40.16V38.16C172.175 38.16 171.671 37.8953 171.355 37.5022C171.006 37.067 170.747 36.3006 170.747 35.032H168.747ZM173.059 40.16C173.553 40.16 174.044 40.103 174.532 39.9904L174.083 38.0416C173.738 38.121 173.398 38.16 173.059 38.16V40.16ZM174.517 39.9938C175.023 39.8854 175.493 39.737 175.921 39.5424L175.094 37.7216C174.818 37.847 174.488 37.9546 174.098 38.0382L174.517 39.9938ZM174.534 38.861L175.494 42.941L177.441 42.483L176.481 38.403L174.534 38.861ZM176.137 41.7681C175.553 41.9726 174.866 42.1531 174.071 42.306L174.448 44.27C175.317 44.1029 176.102 43.8994 176.798 43.6559L176.137 41.7681ZM174.026 42.3156C173.311 42.4871 172.527 42.576 171.667 42.576V44.576C172.664 44.576 173.607 44.4729 174.493 44.2604L174.026 42.3156ZM185.477 42.76L185.098 43.6855L185.108 43.6893L185.117 43.6928L185.477 42.76ZM181.781 40.312L182.488 39.6049L182.488 39.6049L181.781 40.312ZM179.285 36.472L178.349 36.8231L178.353 36.835L178.358 36.8468L179.285 36.472ZM181.733 22.168L181.015 21.4719L181.01 21.4775L181.004 21.4833L181.733 22.168ZM185.237 19.72L185.639 20.6356L185.639 20.6356L185.237 19.72ZM193.493 19.672L193.901 18.7592L193.901 18.7592L193.493 19.672ZM196.517 21.976L195.739 22.6038L195.745 22.6112L195.751 22.6186L196.517 21.976ZM198.389 25.528L197.432 25.8174L197.432 25.8174L198.389 25.528ZM198.917 31.576L197.926 31.4438L197.922 31.4765L197.919 31.5095L198.917 31.576ZM198.773 32.728V33.728H199.575L199.749 32.9449L198.773 32.728ZM183.797 32.728V31.728H182.669L182.804 32.8483L183.797 32.728ZM186.005 37.624L185.317 38.35L185.327 38.3592L185.337 38.3682L186.005 37.624ZM193.589 38.872L193.905 39.8207L193.915 39.8173L193.925 39.8137L193.589 38.872ZM196.229 37.576L197.108 37.0997L196.6 36.1609L195.696 36.7298L196.229 37.576ZM198.101 41.032L198.65 41.8677L199.418 41.3633L198.98 40.5557L198.101 41.032ZM194.357 42.856L194.686 43.8002L194.686 43.8002L194.357 42.856ZM183.749 28.984L182.758 28.8518L182.607 29.984H183.749V28.984ZM194.213 28.984V29.984H195.213V28.984H194.213ZM193.013 24.712L192.204 25.3002L192.215 25.3141L192.225 25.3276L193.013 24.712ZM185.717 24.616L186.402 25.3448L186.402 25.3448L185.717 24.616ZM190.037 42.576C188.518 42.576 187.122 42.3233 185.838 41.8272L185.117 43.6928C186.649 44.2847 188.292 44.576 190.037 44.576V42.576ZM185.856 41.8345C184.568 41.3078 183.449 40.5652 182.488 39.6049L181.074 41.0191C182.226 42.1708 183.57 43.0602 185.098 43.6855L185.856 41.8345ZM182.488 39.6049C181.535 38.6517 180.774 37.4876 180.212 36.0972L178.358 36.8468C179.012 38.4644 179.915 39.8603 181.074 41.0191L182.488 39.6049ZM180.221 36.1209C179.695 34.7162 179.421 33.0943 179.421 31.24H177.421C177.421 33.2897 177.724 35.1558 178.349 36.8231L180.221 36.1209ZM179.421 31.24C179.421 29.4259 179.708 27.8255 180.263 26.424L178.403 25.688C177.742 27.3585 177.421 29.2141 177.421 31.24H179.421ZM180.263 26.424C180.831 24.989 181.568 23.8048 182.462 22.8527L181.004 21.4833C179.915 22.6432 179.051 24.051 178.403 25.688L180.263 26.424ZM182.451 22.8641C183.387 21.8985 184.449 21.1582 185.639 20.6356L184.835 18.8044C183.401 19.4338 182.127 20.3255 181.015 21.4719L182.451 22.8641ZM185.639 20.6356C186.83 20.1129 188.037 19.856 189.269 19.856V17.856C187.749 17.856 186.268 18.1751 184.835 18.8044L185.639 20.6356ZM189.269 19.856C190.756 19.856 192.02 20.1087 193.085 20.5848L193.901 18.7592C192.534 18.1473 190.982 17.856 189.269 17.856V19.856ZM193.085 20.5848C194.163 21.0674 195.042 21.7403 195.739 22.6038L197.296 21.3482C196.392 20.2277 195.255 19.3646 193.901 18.7592L193.085 20.5848ZM195.751 22.6186C196.487 23.4961 197.051 24.5565 197.432 25.8174L199.346 25.2386C198.896 23.7475 198.211 22.4399 197.283 21.3334L195.751 22.6186ZM197.432 25.8174C197.816 27.0878 198.013 28.493 198.013 30.04H200.013C200.013 28.323 199.794 26.7202 199.346 25.2386L197.432 25.8174ZM198.013 30.04C198.013 30.5451 197.983 31.0126 197.926 31.4438L199.908 31.7082C199.979 31.1794 200.013 30.6229 200.013 30.04H198.013ZM197.919 31.5095C197.889 31.9662 197.845 32.2936 197.797 32.5111L199.749 32.9449C199.829 32.5864 199.881 32.1458 199.915 31.6425L197.919 31.5095ZM198.773 31.728H183.797V33.728H198.773V31.728ZM182.804 32.8483C183.081 35.1277 183.891 36.9985 185.317 38.35L186.693 36.898C185.687 35.9455 185.026 34.5523 184.79 32.6077L182.804 32.8483ZM185.337 38.3682C186.795 39.6768 188.629 40.304 190.757 40.304V38.304C189.045 38.304 187.711 37.8112 186.673 36.8798L185.337 38.3682ZM190.757 40.304C191.875 40.304 192.928 40.1466 193.905 39.8207L193.273 37.9233C192.523 38.1734 191.687 38.304 190.757 38.304V40.304ZM193.925 39.8137C194.895 39.4675 195.841 39.0023 196.762 38.4222L195.696 36.7298C194.89 37.2377 194.075 37.6365 193.253 37.9303L193.925 39.8137ZM195.35 38.0523L197.222 41.5083L198.98 40.5557L197.108 37.0997L195.35 38.0523ZM197.552 40.1963C196.506 40.8835 195.333 41.4565 194.028 41.9118L194.686 43.8002C196.133 43.2955 197.456 42.6525 198.65 41.8677L197.552 40.1963ZM194.028 41.9118C192.761 42.3537 191.433 42.576 190.037 42.576V44.576C191.65 44.576 193.201 44.3183 194.686 43.8002L194.028 41.9118ZM183.749 29.984H194.213V27.984H183.749V29.984ZM195.213 28.984C195.213 27.0251 194.784 25.3549 193.801 24.0964L192.225 25.3276C192.842 26.1171 193.213 27.2949 193.213 28.984H195.213ZM193.822 24.1238C192.819 22.7445 191.276 22.128 189.413 22.128V24.128C190.814 24.128 191.672 24.5674 192.204 25.3002L193.822 24.1238ZM189.413 22.128C187.743 22.128 186.268 22.7266 185.032 23.8872L186.402 25.3448C187.278 24.5214 188.268 24.128 189.413 24.128V22.128ZM185.032 23.8872C183.76 25.0829 183.034 26.7807 182.758 28.8518L184.74 29.1162C184.976 27.3473 185.563 26.1331 186.402 25.3448L185.032 23.8872ZM206.013 42.664L205.635 43.5898L205.647 43.5945L205.658 43.5988L206.013 42.664ZM201.933 40.312L201.125 39.7225L200.563 40.4927L201.306 41.0908L201.933 40.312ZM204.525 36.76L205.144 35.9745L204.329 35.3324L203.717 36.1705L204.525 36.76ZM207.645 38.728L207.221 39.6335L207.238 39.6413L207.255 39.6486L207.645 38.728ZM213.885 38.632L214.529 39.3969L214.541 39.3872L214.552 39.3772L213.885 38.632ZM214.365 35.32L213.565 35.92L213.578 35.9369L213.591 35.9532L214.365 35.32ZM213.213 34.312L212.699 35.1695L212.699 35.1695L213.213 34.312ZM211.581 33.544L211.193 34.4656L211.214 34.4745L211.236 34.4823L211.581 33.544ZM209.757 32.776L210.145 31.8544L210.127 31.8466L210.108 31.8397L209.757 32.776ZM207.405 31.768L207.838 30.8665L207.838 30.8665L207.405 31.768ZM205.245 30.376L204.578 31.1212L204.588 31.1297L204.598 31.1379L205.245 30.376ZM203.709 28.504L202.823 28.9666L202.835 28.99L202.848 29.0127L203.709 28.504ZM205.437 20.824L206.087 21.5844L206.087 21.5844L205.437 20.824ZM219.549 21.688L220.347 22.2916L220.947 21.4992L220.158 20.8944L219.549 21.688ZM217.005 25.048L216.415 25.8554L217.209 26.4355L217.803 25.6516L217.005 25.048ZM214.461 23.608L214.042 24.516L214.063 24.5255L214.084 24.5341L214.461 23.608ZM209.181 23.8L209.843 24.5498L209.846 24.5474L209.181 23.8ZM208.749 26.872L207.941 27.4602L207.971 27.5023L208.006 27.541L208.749 26.872ZM209.853 27.736L210.349 26.8678L210.349 26.8678L209.853 27.736ZM211.389 28.456L211.027 29.388L211.035 29.3912L211.044 29.3943L211.389 28.456ZM213.261 29.128L213.6 28.1871L213.592 28.1841L213.261 29.128ZM215.661 30.136L215.229 31.0375L215.243 31.0447L215.259 31.0513L215.661 30.136ZM217.821 31.48L217.174 32.2419L217.183 32.2497L217.192 32.2572L217.821 31.48ZM219.405 33.496L218.504 33.9287L218.514 33.9508L218.526 33.9723L219.405 33.496ZM219.405 39.16L218.498 38.7389L218.495 38.7463L218.491 38.7539L219.405 39.16ZM217.677 41.464L218.317 42.2322L218.327 42.2245L218.336 42.2166L217.677 41.464ZM214.797 43L215.113 43.9487L215.113 43.9487L214.797 43ZM210.861 42.576C209.356 42.576 207.861 42.2962 206.368 41.7292L205.658 43.5988C207.366 44.2478 209.102 44.576 210.861 44.576V42.576ZM206.391 41.7382C204.9 41.1296 203.627 40.3923 202.561 39.5332L201.306 41.0908C202.544 42.0877 203.99 42.9184 205.635 43.5898L206.391 41.7382ZM202.741 40.9015L205.333 37.3495L203.717 36.1705L201.125 39.7225L202.741 40.9015ZM203.906 37.5455C205.011 38.4162 206.116 39.1156 207.221 39.6335L208.07 37.8225C207.126 37.3804 206.151 36.7678 205.144 35.9745L203.906 37.5455ZM207.255 39.6486C208.442 40.1521 209.711 40.4 211.053 40.4V38.4C209.963 38.4 208.961 38.1999 208.036 37.8074L207.255 39.6486ZM211.053 40.4C212.434 40.4 213.66 40.1294 214.529 39.3969L213.241 37.8671C212.895 38.1586 212.232 38.4 211.053 38.4V40.4ZM214.552 39.3772C215.377 38.6393 215.797 37.6781 215.797 36.568H213.797C213.797 37.1219 213.61 37.5367 213.218 37.8868L214.552 39.3772ZM215.797 36.568C215.797 35.871 215.582 35.2278 215.139 34.6868L213.591 35.9532C213.725 36.1162 213.797 36.305 213.797 36.568H215.797ZM215.165 34.72C214.788 34.2168 214.3 33.7982 213.728 33.4545L212.699 35.1695C213.086 35.4018 213.367 35.6552 213.565 35.92L215.165 34.72ZM213.728 33.4545C213.187 33.1298 212.585 32.848 211.927 32.6057L211.236 34.4823C211.794 34.688 212.28 34.9182 212.699 35.1695L213.728 33.4545ZM211.969 32.6224C211.361 32.3664 210.753 32.1104 210.145 31.8544L209.369 33.6976C209.977 33.9536 210.585 34.2096 211.193 34.4656L211.969 32.6224ZM210.108 31.8397C209.37 31.5629 208.613 31.2387 207.838 30.8665L206.973 32.6695C207.797 33.0653 208.608 33.4131 209.406 33.7123L210.108 31.8397ZM207.838 30.8665C207.111 30.5175 206.464 30.0995 205.893 29.6141L204.598 31.1379C205.307 31.7405 206.1 32.2505 206.973 32.6695L207.838 30.8665ZM205.912 29.6308C205.381 29.1553 204.934 28.6111 204.57 27.9953L202.848 29.0127C203.316 29.8049 203.894 30.5087 204.578 31.1212L205.912 29.6308ZM204.596 28.0414C204.3 27.4736 204.133 26.7741 204.133 25.912H202.133C202.133 27.0339 202.351 28.0624 202.823 28.9666L204.596 28.0414ZM204.133 25.912C204.133 24.1146 204.781 22.7 206.087 21.5844L204.788 20.0636C203.022 21.572 202.133 23.5494 202.133 25.912H204.133ZM206.087 21.5844C207.391 20.4701 209.231 19.856 211.725 19.856V17.856C208.907 17.856 206.555 18.5539 204.788 20.0636L206.087 21.5844ZM211.725 19.856C213.238 19.856 214.57 20.1225 215.739 20.6356L216.543 18.8044C215.088 18.1655 213.476 17.856 211.725 17.856V19.856ZM215.739 20.6356C216.991 21.1851 218.055 21.8024 218.941 22.4816L220.158 20.8944C219.124 20.1016 217.916 19.4069 216.543 18.8044L215.739 20.6356ZM218.752 21.0844L216.208 24.4444L217.803 25.6516L220.347 22.2916L218.752 21.0844ZM217.595 24.2406C216.704 23.5895 215.785 23.0677 214.839 22.6819L214.084 24.5341C214.865 24.8523 215.642 25.2905 216.415 25.8554L217.595 24.2406ZM214.88 22.7C213.915 22.2546 212.892 22.032 211.821 22.032V24.032C212.606 24.032 213.343 24.1934 214.042 24.516L214.88 22.7ZM211.821 22.032C210.519 22.032 209.352 22.3099 208.517 23.0526L209.846 24.5474C210.162 24.2661 210.756 24.032 211.821 24.032V22.032ZM208.52 23.0502C207.757 23.7231 207.365 24.6058 207.365 25.624H209.365C209.365 25.1702 209.518 24.8369 209.843 24.5498L208.52 23.0502ZM207.365 25.624C207.365 26.2925 207.547 26.9197 207.941 27.4602L209.558 26.2838C209.439 26.1203 209.365 25.9155 209.365 25.624H207.365ZM208.006 27.541C208.378 27.954 208.834 28.3056 209.357 28.6042L210.349 26.8678C209.976 26.6544 209.697 26.43 209.493 26.203L208.006 27.541ZM209.357 28.6042C209.855 28.889 210.413 29.1495 211.027 29.388L211.752 27.524C211.213 27.3145 210.747 27.095 210.349 26.8678L209.357 28.6042ZM211.044 29.3943C211.657 29.6203 212.286 29.8461 212.931 30.0719L213.592 28.1841C212.956 27.9619 212.338 27.7397 211.735 27.5177L211.044 29.3943ZM212.923 30.0689C213.689 30.3449 214.458 30.6676 215.229 31.0375L216.094 29.2345C215.265 28.8364 214.433 28.4871 213.6 28.1871L212.923 30.0689ZM215.259 31.0513C215.973 31.3659 216.61 31.7632 217.174 32.2419L218.469 30.7181C217.752 30.1088 216.949 29.6101 216.064 29.2207L215.259 31.0513ZM217.192 32.2572C217.746 32.7055 218.182 33.2587 218.504 33.9287L220.307 33.0633C219.86 32.1333 219.241 31.3425 218.45 30.7028L217.192 32.2572ZM218.526 33.9723C218.846 34.5623 219.029 35.3181 219.029 36.28H221.029C221.029 35.0659 220.797 33.9657 220.285 33.0197L218.526 33.9723ZM219.029 36.28C219.029 37.164 218.851 37.9797 218.498 38.7389L220.312 39.5811C220.792 38.5483 221.029 37.444 221.029 36.28H219.029ZM218.491 38.7539C218.171 39.4749 217.686 40.1273 217.019 40.7114L218.336 42.2166C219.204 41.4567 219.872 40.5731 220.319 39.5661L218.491 38.7539ZM217.037 40.6958C216.383 41.2408 215.539 41.6985 214.481 42.0513L215.113 43.9487C216.359 43.5335 217.436 42.9672 218.317 42.2322L217.037 40.6958ZM214.481 42.0513C213.45 42.395 212.248 42.576 210.861 42.576V44.576C212.419 44.576 213.841 44.373 215.113 43.9487L214.481 42.0513Z" fill="black"/>
<circle cx="145" cy="30" r="13" fill="#0A0A0A"/>
<path d="M154.323 29.8148L139.911 37.991L140.058 21.4347L154.323 29.8148Z" fill="#03FF0D"/>
</svg>
